<svg version="1.1" id="Layer_1" xmlns="http://www.w3.org/2000/svg" xmlns:xlink="http://www.w3.org/1999/xlink" x="0px" y="0px"
	 width="100%" viewBox="0 0 810 186" enable-background="new 0 0 810 186" xml:space="preserve"><rect id="backgroundrect" width="100%" height="100%" x="0" y="0" fill="none" stroke="none"/>






















<g class="currentLayer" style=""><title>Layer 1</title><path fill="#FFFFFF" opacity="0" stroke="none" d=" M583.000000,187.000000   C388.666687,187.000000 194.833374,187.000000 1.000052,187.000000   C1.000035,125.000031 1.000035,63.000061 1.000017,1.000069   C270.999939,1.000046 540.999878,1.000046 810.999878,1.000023   C810.999878,62.999928 810.999878,124.999855 810.999939,186.999893   C735.166687,187.000000 659.333313,187.000000 583.000000,187.000000  M135.416306,137.266205   C150.166031,137.215225 155.845093,131.493240 155.846222,116.679138   C155.847214,103.860748 155.875931,91.042259 155.837570,78.223984   C155.803040,66.692314 149.053909,59.950333 137.525742,59.938961   C112.887802,59.914658 88.249817,59.910812 63.611900,59.940514   C51.573547,59.955025 45.061958,66.388474 45.011940,78.335114   C44.956188,91.652687 44.975346,104.970734 45.005726,118.288475   C45.034740,131.006897 51.257790,137.236832 64.020500,137.255966   C87.493088,137.291153 110.965775,137.266281 135.416306,137.266205  M316.137817,85.243027   C305.570282,80.225563 294.999451,82.443153 288.501190,91.040764   C282.137634,99.460144 282.511322,113.492760 290.218811,120.893013   C293.480377,124.024582 298.290863,126.053680 302.755707,127.301537   C309.434814,129.168243 315.316467,126.178978 320.668945,121.599365   C321.061798,123.585487 321.359039,125.088150 321.611511,126.364578   C324.423737,126.364578 326.815918,126.364578 329.330322,126.364578   C329.330322,103.418930 329.330322,80.865143 329.330322,58.273064   C326.496887,58.273064 323.955109,58.273064 320.823425,58.273064   C320.823425,68.596970 320.823425,78.554420 320.823425,88.952621   C319.073975,87.530380 317.917511,86.590248 316.137817,85.243027  M647.052734,105.500061   C647.052734,120.933792 647.052734,136.367523 647.052734,151.878418   C650.012634,151.878418 652.410950,151.878418 655.315552,151.878418   C655.315552,141.564484 655.315552,131.543701 655.315552,121.110893   C665.584412,129.694107 677.163879,129.859406 685.493408,121.965538   C694.015076,113.889572 695.117554,99.535034 687.113708,90.269485   C684.287842,86.998154 679.798706,84.526009 675.593689,83.223969   C668.172791,80.926178 661.345154,83.363861 655.493958,89.117447   C655.219910,86.900665 655.025269,85.325745 654.830139,83.747314   C652.171265,83.747314 649.754822,83.747314 647.052734,83.747314   C647.052734,90.881538 647.052734,97.690842 647.052734,105.500061  M479.540741,63.883698   C473.206207,67.814758 470.038513,73.250191 470.650482,80.947662   C471.286865,88.952133 475.820251,93.653465 482.782227,96.490761   C486.929871,98.181122 491.247223,99.452972 495.407654,101.114868   C498.938934,102.525452 501.887817,104.623238 502.077667,108.960243   C502.277771,113.531105 499.946991,116.560867 495.999878,118.369957   C488.079498,122.000137 481.482117,119.422745 475.546967,113.370911   C473.207031,115.413849 471.002441,117.338623 468.808685,119.253929   C475.894379,127.902885 488.651520,130.703812 499.497681,126.253334   C506.891937,123.219254 511.480103,116.407234 511.546082,108.365082   C511.610260,100.546623 508.181030,95.852264 499.652283,92.443130   C495.344604,90.721252 490.866364,89.419922 486.584106,87.642128   C482.248901,85.842331 479.438538,82.779778 480.008057,77.642860   C480.472534,73.453033 484.208221,70.026077 489.239105,69.175880   C495.010681,68.200516 499.976227,69.871635 503.972290,74.103226   C506.444305,71.913902 508.619873,69.987122 510.779510,68.074448   C503.061462,60.086441 491.167816,58.520741 479.540741,63.883698  M242.779846,84.113159   C239.061447,93.823082 235.343063,103.533005 231.167847,114.435867   C230.192688,111.899376 229.605682,110.439682 229.067505,108.962189   C224.124237,95.391129 219.218094,81.806465 214.240295,68.248100   C211.699738,61.328259 210.421463,60.792313 202.351089,63.035587   C210.214020,83.495781 217.998489,103.957680 226.082474,124.300560   C226.593674,125.587006 229.462326,126.611931 231.188843,126.547226   C232.862976,126.484489 235.343719,125.249893 235.973831,123.854324   C239.114365,116.898521 241.781494,109.727821 244.578293,102.618225   C249.790283,89.369118 254.976761,76.109970 260.202301,62.782452   C251.377502,61.177586 251.368561,61.174191 248.602905,68.451263   C246.716385,73.415146 244.859116,78.390144 242.779846,84.113159  M371.055237,84.255653   C355.248657,78.919296 341.363892,86.874557 339.455750,102.360573   C338.149292,112.963295 343.879883,122.637741 353.339874,126.375587   C360.757751,129.306564 375.375977,127.515900 380.119720,118.522415   C378.340149,117.183823 376.509308,115.806664 374.488190,114.286377   C369.366638,120.105759 363.154572,122.240128 356.069305,119.064407   C351.830841,117.164688 348.103485,114.229912 348.463867,108.063889   C359.852142,108.063889 371.068237,108.063889 382.658875,108.063889   C382.524261,98.146675 380.784271,89.698929 371.055237,84.255653  M732.941040,125.714615   C735.775330,123.586578 738.609680,121.458534 741.799011,119.063980   C739.107971,117.107651 737.275574,115.775513 735.538818,114.512924   C727.739685,120.884727 722.754578,122.084007 716.650330,118.970879   C712.375427,116.790710 708.830627,113.948555 709.250854,107.882309   C720.659424,107.882309 731.903198,107.882309 743.387268,107.882309   C743.266724,105.405373 743.265198,103.417740 743.058289,101.451706   C742.016541,91.552658 736.076355,84.509216 727.591980,83.028488   C716.463867,81.086357 706.892212,85.537758 702.472961,94.710342   C698.312439,103.346039 699.525574,113.992142 705.966919,120.826027   C713.377991,128.688629 722.507202,129.101608 732.941040,125.714615  M404.742737,84.043922   C391.529175,90.704491 386.629150,103.757156 392.956146,115.441200   C398.861145,126.346062 411.707458,130.747437 422.866638,125.689110   C433.698578,120.779114 439.056976,108.138260 434.878021,97.353233   C430.278687,85.483284 418.264587,79.970421 404.742737,84.043922  M635.092590,106.497574   C635.092529,103.833458 635.531250,101.075966 634.988953,98.527206   C634.186584,94.756180 633.541382,90.482132 631.321716,87.572144   C625.194519,79.539413 605.392456,81.558708 600.756897,89.174294   C602.024536,90.738907 603.269653,92.275795 604.620728,93.943398   C610.821228,89.905334 617.044250,86.457794 623.664673,91.302460   C625.830017,92.886971 626.606323,96.369675 628.516846,99.908691   C625.360596,99.908691 624.011108,99.733658 622.722168,99.938873   C617.028503,100.845360 611.114258,101.168861 605.732117,103.019051   C599.500305,105.161331 597.057190,110.639107 597.959045,117.043396   C598.684692,122.196449 602.777100,126.040710 608.748840,127.275253   C616.151123,128.805542 622.365845,126.507805 627.738831,120.936699   C628.007690,123.090919 628.207031,124.688484 628.412048,126.331070   C630.846863,126.331070 633.040588,126.331070 635.092590,126.331070   C635.092590,119.775360 635.092590,113.632111 635.092590,106.497574  M538.208801,90.966576   C544.024536,89.124786 548.943604,90.957932 553.308228,94.939041   C555.393188,93.010712 557.290771,91.255676 559.144958,89.540802   C552.394348,80.689842 534.403442,80.001709 525.872620,89.725166   C517.344727,99.445221 518.708496,115.476662 529.014954,123.549477   C537.570801,130.251083 552.986145,128.841599 558.298340,121.263725   C556.733948,119.260292 555.227051,117.330414 553.799866,115.502716   C543.663757,122.698730 533.196045,120.362724 529.907654,110.729889   C527.272217,103.009827 530.120728,95.527061 538.208801,90.966576  M778.023438,87.509544   C778.023438,86.050217 778.023438,84.590889 778.023438,83.093506   C771.299316,81.137871 766.647461,84.604889 762.001892,88.440514   C761.504883,86.551804 761.104980,85.031998 760.758240,83.714264   C758.112915,83.714264 755.843384,83.714264 753.382080,83.714264   C753.382080,98.079887 753.382080,112.133972 753.382080,126.468597   C756.037109,126.468597 758.446167,126.468597 761.664551,126.468597   C761.664551,118.556900 761.265442,110.755127 761.770142,103.012268   C762.343018,94.223038 766.293091,90.912354 775.122375,91.487564   C778.187012,91.687225 777.955261,90.256302 778.023438,87.509544  M575.011230,88.089149   C574.575500,86.568466 574.139771,85.047783 573.752441,83.696007   C571.152100,83.696007 568.881104,83.696007 566.530701,83.696007   C566.530701,98.161636 566.530701,112.329750 566.530701,126.570084   C569.227539,126.570084 571.523071,126.570084 574.153076,126.570084   C574.241028,124.954025 574.363037,123.495033 574.392578,122.034172   C574.530212,115.223206 574.272400,108.379333 574.865112,101.609314   C575.488892,94.483383 579.895325,91.109795 587.028015,91.332298   C588.142822,91.367065 589.254517,91.502060 590.727234,91.619354   C590.727234,88.508217 590.727234,85.794304 590.727234,82.926781   C584.598328,81.513199 579.955872,83.963844 575.011230,88.089149  M273.183563,122.298035   C273.183563,109.515915 273.183563,96.733788 273.183563,83.691589   C270.288055,83.691589 267.881927,83.691589 265.309540,83.691589   C265.309540,98.033966 265.309540,112.101929 265.309540,126.122978   C272.230896,127.359596 272.426331,127.284447 273.183563,122.298035  M265.112915,72.515694   C269.984375,75.002991 274.813202,73.434006 274.863892,68.978165   C274.887360,66.917503 273.452667,63.882381 271.787781,63.030094   C270.126953,62.179886 266.903442,62.847054 265.164673,64.027161   C262.207672,66.034103 262.754547,69.125137 265.112915,72.515694  z" id="svg_1" class=""/><path fill="#3671CC" opacity="1.000000" stroke="none" d=" M134.927368,137.266327   C110.965775,137.266281 87.493088,137.291153 64.020500,137.255966   C51.257790,137.236832 45.034740,131.006897 45.005726,118.288475   C44.975346,104.970734 44.956188,91.652687 45.011940,78.335114   C45.061958,66.388474 51.573547,59.955025 63.611900,59.940514   C88.249817,59.910812 112.887802,59.914658 137.525742,59.938961   C149.053909,59.950333 155.803040,66.692314 155.837570,78.223984   C155.875931,91.042259 155.847214,103.860748 155.846222,116.679138   C155.845093,131.493240 150.166031,137.215225 134.927368,137.266327  M95.090767,79.442345   C93.340904,78.352188 91.591034,77.262032 89.487534,75.951561   C89.487534,89.969635 89.487534,103.190636 89.487534,117.233192   C100.164719,110.209618 110.289253,103.549583 121.017944,96.492134   C112.063805,90.612000 103.875725,85.234932 95.090767,79.442345  z" id="svg_2"/><path fill="#1F60BE" opacity="1.000000" stroke="none" d=" M316.449463,85.446564   C317.917511,86.590248 319.073975,87.530380 320.823425,88.952621   C320.823425,78.554420 320.823425,68.596970 320.823425,58.273064   C323.955109,58.273064 326.496887,58.273064 329.330322,58.273064   C329.330322,80.865143 329.330322,103.418930 329.330322,126.364578   C326.815918,126.364578 324.423737,126.364578 321.611511,126.364578   C321.359039,125.088150 321.061798,123.585487 320.668945,121.599365   C315.316467,126.178978 309.434814,129.168243 302.755707,127.301537   C298.290863,126.053680 293.480377,124.024582 290.218811,120.893013   C282.511322,113.492760 282.137634,99.460144 288.501190,91.040764   C294.999451,82.443153 305.570282,80.225563 316.449463,85.446564  M308.326080,119.971405   C316.052826,118.874016 320.400360,114.476547 321.040863,107.110451   C321.740509,99.065063 318.541382,93.129311 312.191895,91.078171   C306.591064,89.268883 301.336243,89.749451 297.069336,94.291534   C292.321442,99.345650 291.882141,105.353294 294.213593,111.447998   C296.456482,117.311050 301.158478,120.102707 308.326080,119.971405  z" id="svg_3"/><path fill="#195CBC" opacity="1.000000" stroke="none" d=" M647.052734,105.000107   C647.052734,97.690842 647.052734,90.881538 647.052734,83.747314   C649.754822,83.747314 652.171265,83.747314 654.830139,83.747314   C655.025269,85.325745 655.219910,86.900665 655.493958,89.117447   C661.345154,83.363861 668.172791,80.926178 675.593689,83.223969   C679.798706,84.526009 684.287842,86.998154 687.113708,90.269485   C695.117554,99.535034 694.015076,113.889572 685.493408,121.965538   C677.163879,129.859406 665.584412,129.694107 655.315552,121.110893   C655.315552,131.543701 655.315552,141.564484 655.315552,151.878418   C652.410950,151.878418 650.012634,151.878418 647.052734,151.878418   C647.052734,136.367523 647.052734,120.933792 647.052734,105.000107  M658.496643,95.129135   C657.438721,98.045784 655.854065,100.887932 655.428833,103.894066   C654.444031,110.856842 658.459961,117.171959 664.572388,119.218880   C671.095154,121.403229 677.964783,119.243408 681.250671,113.975113   C685.027222,107.920311 684.012329,97.997375 679.178284,93.712425   C673.410095,88.599388 665.460327,88.917671 658.496643,95.129135  z" id="svg_4"/><path fill="#195BBC" opacity="1.000000" stroke="none" d=" M479.869019,63.702579   C491.167816,58.520741 503.061462,60.086441 510.779510,68.074448   C508.619873,69.987122 506.444305,71.913902 503.972290,74.103226   C499.976227,69.871635 495.010681,68.200516 489.239105,69.175880   C484.208221,70.026077 480.472534,73.453033 480.008057,77.642860   C479.438538,82.779778 482.248901,85.842331 486.584106,87.642128   C490.866364,89.419922 495.344604,90.721252 499.652283,92.443130   C508.181030,95.852264 511.610260,100.546623 511.546082,108.365082   C511.480103,116.407234 506.891937,123.219254 499.497681,126.253334   C488.651520,130.703812 475.894379,127.902885 468.808685,119.253929   C471.002441,117.338623 473.207031,115.413849 475.546967,113.370911   C481.482117,119.422745 488.079498,122.000137 495.999878,118.369957   C499.946991,116.560867 502.277771,113.531105 502.077667,108.960243   C501.887817,104.623238 498.938934,102.525452 495.407654,101.114868   C491.247223,99.452972 486.929871,98.181122 482.782227,96.490761   C475.820251,93.653465 471.286865,88.952133 470.650482,80.947662   C470.038513,73.250191 473.206207,67.814758 479.869019,63.702579  z" id="svg_5"/><path fill="#195CBC" opacity="1.000000" stroke="none" d=" M242.884293,83.736664   C244.859116,78.390144 246.716385,73.415146 248.602905,68.451263   C251.368561,61.174191 251.377502,61.177586 260.202301,62.782452   C254.976761,76.109970 249.790283,89.369118 244.578293,102.618225   C241.781494,109.727821 239.114365,116.898521 235.973831,123.854324   C235.343719,125.249893 232.862976,126.484489 231.188843,126.547226   C229.462326,126.611931 226.593674,125.587006 226.082474,124.300560   C217.998489,103.957680 210.214020,83.495781 202.351089,63.035587   C210.421463,60.792313 211.699738,61.328259 214.240295,68.248100   C219.218094,81.806465 224.124237,95.391129 229.067505,108.962189   C229.605682,110.439682 230.192688,111.899376 231.167847,114.435867   C235.343063,103.533005 239.061447,93.823082 242.884293,83.736664  z" id="svg_6"/><path fill="#195CBC" opacity="1.000000" stroke="none" d=" M371.382538,84.445984   C380.784271,89.698929 382.524261,98.146675 382.658875,108.063889   C371.068237,108.063889 359.852142,108.063889 348.463867,108.063889   C348.103485,114.229912 351.830841,117.164688 356.069305,119.064407   C363.154572,122.240128 369.366638,120.105759 374.488190,114.286377   C376.509308,115.806664 378.340149,117.183823 380.119720,118.522415   C375.375977,127.515900 360.757751,129.306564 353.339874,126.375587   C343.879883,122.637741 338.149292,112.963295 339.455750,102.360573   C341.363892,86.874557 355.248657,78.919296 371.382538,84.445984  M364.810059,89.240517   C354.849243,88.517632 348.952179,92.893044 348.573425,101.120956   C356.929535,101.120956 365.286102,101.120956 373.831177,101.120956   C373.329041,95.208702 371.119873,91.151268 364.810059,89.240517  z" id="svg_7"/><path fill="#195BBC" opacity="1.000000" stroke="none" d=" M732.573120,125.832748   C722.507202,129.101608 713.377991,128.688629 705.966919,120.826027   C699.525574,113.992142 698.312439,103.346039 702.472961,94.710342   C706.892212,85.537758 716.463867,81.086357 727.591980,83.028488   C736.076355,84.509216 742.016541,91.552658 743.058289,101.451706   C743.265198,103.417740 743.266724,105.405373 743.387268,107.882309   C731.903198,107.882309 720.659424,107.882309 709.250854,107.882309   C708.830627,113.948555 712.375427,116.790710 716.650330,118.970879   C722.754578,122.084007 727.739685,120.884727 735.538818,114.512924   C737.275574,115.775513 739.107971,117.107651 741.799011,119.063980   C738.609680,121.458534 735.775330,123.586578 732.573120,125.832748  M720.516113,101.594109   C725.204956,101.594109 729.893738,101.594109 734.696655,101.594109   C733.174683,92.061951 728.183105,88.018089 720.414062,89.136627   C713.782410,90.091400 709.076233,95.419159 709.651245,101.593773   C712.929871,101.593773 716.233093,101.593773 720.516113,101.594109  z" id="svg_8"/><path fill="#195CBC" opacity="1.000000" stroke="none" d=" M405.127014,83.960831   C418.264587,79.970421 430.278687,85.483284 434.878021,97.353233   C439.056976,108.138260 433.698578,120.779114 422.866638,125.689110   C411.707458,130.747437 398.861145,126.346062 392.956146,115.441200   C386.629150,103.757156 391.529175,90.704491 405.127014,83.960831  M425.972870,97.966362   C421.730591,91.033958 415.430084,88.548882 408.236755,90.970810   C402.162598,93.015938 398.502411,99.286110 399.160889,106.518555   C399.829926,113.867424 404.309631,118.921478 411.028656,119.907936   C422.702148,121.621811 429.792053,111.773376 425.972870,97.966362  z" id="svg_9"/><path fill="#1B5DBD" opacity="1.000000" stroke="none" d=" M635.092590,106.993217   C635.092590,113.632111 635.092590,119.775360 635.092590,126.331070   C633.040588,126.331070 630.846863,126.331070 628.412048,126.331070   C628.207031,124.688484 628.007690,123.090919 627.738831,120.936699   C622.365845,126.507805 616.151123,128.805542 608.748840,127.275253   C602.777100,126.040710 598.684692,122.196449 597.959045,117.043396   C597.057190,110.639107 599.500305,105.161331 605.732117,103.019051   C611.114258,101.168861 617.028503,100.845360 622.722168,99.938873   C624.011108,99.733658 625.360596,99.908691 628.516846,99.908691   C626.606323,96.369675 625.830017,92.886971 623.664673,91.302460   C617.044250,86.457794 610.821228,89.905334 604.620728,93.943398   C603.269653,92.275795 602.024536,90.738907 600.756897,89.174294   C605.392456,81.558708 625.194519,79.539413 631.321716,87.572144   C633.541382,90.482132 634.186584,94.756180 634.988953,98.527206   C635.531250,101.075966 635.092529,103.833458 635.092590,106.993217  M612.068726,120.860909   C623.171631,121.485252 628.519043,116.186081 626.637817,105.537933   C621.819092,106.113899 616.754822,106.083633 612.152832,107.527122   C609.711243,108.292984 607.102051,111.315071 606.310608,113.860344   C605.269409,117.208572 607.824829,119.680580 612.068726,120.860909  z" id="svg_10" class=""/><path fill="#1C5EBD" opacity="1.000000" stroke="none" d=" M537.792969,91.037567   C530.120728,95.527061 527.272217,103.009827 529.907654,110.729889   C533.196045,120.362724 543.663757,122.698730 553.799866,115.502716   C555.227051,117.330414 556.733948,119.260292 558.298340,121.263725   C552.986145,128.841599 537.570801,130.251083 529.014954,123.549477   C518.708496,115.476662 517.344727,99.445221 525.872620,89.725166   C534.403442,80.001709 552.394348,80.689842 559.144958,89.540802   C557.290771,91.255676 555.393188,93.010712 553.308228,94.939041   C548.943604,90.957932 544.024536,89.124786 537.792969,91.037567  z" id="svg_11"/><path fill="#1D5EBD" opacity="1.000000" stroke="none" d=" M778.020081,87.950409   C777.955261,90.256302 778.187012,91.687225 775.122375,91.487564   C766.293091,90.912354 762.343018,94.223038 761.770142,103.012268   C761.265442,110.755127 761.664551,118.556900 761.664551,126.468597   C758.446167,126.468597 756.037109,126.468597 753.382080,126.468597   C753.382080,112.133972 753.382080,98.079887 753.382080,83.714264   C755.843384,83.714264 758.112915,83.714264 760.758240,83.714264   C761.104980,85.031998 761.504883,86.551804 762.001892,88.440514   C766.647461,84.604889 771.299316,81.137871 778.023438,83.093506   C778.023438,84.590889 778.023438,86.050217 778.020081,87.950409  z" id="svg_12"/><path fill="#1D5FBD" opacity="1.000000" stroke="none" d=" M575.418579,88.025101   C579.955872,83.963844 584.598328,81.513199 590.727234,82.926781   C590.727234,85.794304 590.727234,88.508217 590.727234,91.619354   C589.254517,91.502060 588.142822,91.367065 587.028015,91.332298   C579.895325,91.109795 575.488892,94.483383 574.865112,101.609314   C574.272400,108.379333 574.530212,115.223206 574.392578,122.034172   C574.363037,123.495033 574.241028,124.954025 574.153076,126.570084   C571.523071,126.570084 569.227539,126.570084 566.530701,126.570084   C566.530701,112.329750 566.530701,98.161636 566.530701,83.696007   C568.881104,83.696007 571.152100,83.696007 573.752441,83.696007   C574.139771,85.047783 574.575500,86.568466 575.418579,88.025101  z" id="svg_13"/><path fill="#195CBC" opacity="1.000000" stroke="none" d=" M273.183350,122.769287   C272.426331,127.284447 272.230896,127.359596 265.309540,126.122978   C265.309540,112.101929 265.309540,98.033966 265.309540,83.691589   C267.881927,83.691589 270.288055,83.691589 273.183563,83.691589   C273.183563,96.733788 273.183563,109.515915 273.183350,122.769287  z" id="svg_14"/><path fill="#2161BE" opacity="1.000000" stroke="none" d=" M264.864746,72.215866   C262.754547,69.125137 262.207672,66.034103 265.164673,64.027161   C266.903442,62.847054 270.126953,62.179886 271.787781,63.030094   C273.452667,63.882381 274.887360,66.917503 274.863892,68.978165   C274.813202,73.434006 269.984375,75.002991 264.864746,72.215866  z" id="svg_15"/><path fill="#F8FAFD" opacity="1.000000" stroke="none" d=" M95.389206,79.650101   C103.875725,85.234932 112.063805,90.612000 121.017944,96.492134   C110.289253,103.549583 100.164719,110.209618 89.487534,117.233192   C89.487534,103.190636 89.487534,89.969635 89.487534,75.951561   C91.591034,77.262032 93.340904,78.352188 95.389206,79.650101  z" id="svg_16"/><path fill="#FDFDFE" opacity="0" stroke="none" d=" M307.909271,119.976883   C301.158478,120.102707 296.456482,117.311050 294.213593,111.447998   C291.882141,105.353294 292.321442,99.345650 297.069336,94.291534   C301.336243,89.749451 306.591064,89.268883 312.191895,91.078171   C318.541382,93.129311 321.740509,99.065063 321.040863,107.110451   C320.400360,114.476547 316.052826,118.874016 307.909271,119.976883  z" id="svg_17" class=""/><path fill="#FCFDFE" opacity="0" stroke="none" d=" M658.723267,94.825714   C665.460327,88.917671 673.410095,88.599388 679.178284,93.712425   C684.012329,97.997375 685.027222,107.920311 681.250671,113.975113   C677.964783,119.243408 671.095154,121.403229 664.572388,119.218880   C658.459961,117.171959 654.444031,110.856842 655.428833,103.894066   C655.854065,100.887932 657.438721,98.045784 658.723267,94.825714  z" id="svg_18" class=""/><path fill="#EDF2FA" opacity="0" stroke="none" d=" M365.195129,89.367508   C371.119873,91.151268 373.329041,95.208702 373.831177,101.120956   C365.286102,101.120956 356.929535,101.120956 348.573425,101.120956   C348.952179,92.893044 354.849243,88.517632 365.195129,89.367508  z" id="svg_19" class=""/><path fill="#EEF3FA" opacity="0" stroke="none" d=" M720.026245,101.593941   C716.233093,101.593773 712.929871,101.593773 709.651245,101.593773   C709.076233,95.419159 713.782410,90.091400 720.414062,89.136627   C728.183105,88.018089 733.174683,92.061951 734.696655,101.594109   C729.893738,101.594109 725.204956,101.594109 720.026245,101.593941  z" id="svg_20" class=""/><path fill="#FCFDFE" opacity="0" stroke="none" d=" M426.130981,98.338158   C429.792053,111.773376 422.702148,121.621811 411.028656,119.907936   C404.309631,118.921478 399.829926,113.867424 399.160889,106.518555   C398.502411,99.286110 402.162598,93.015938 408.236755,90.970810   C415.430084,88.548882 421.730591,91.033958 426.130981,98.338158  z" id="svg_21" class=""/><path fill="#FBFDFE" opacity="0" stroke="none" d=" M611.663696,120.787064   C607.824829,119.680580 605.269409,117.208572 606.310608,113.860344   C607.102051,111.315071 609.711243,108.292984 612.152832,107.527122   C616.754822,106.083633 621.819092,106.113899 626.637817,105.537933   C628.519043,116.186081 623.171631,121.485252 611.663696,120.787064  z" id="svg_22" class=""/></g></svg>