<svg version="1.1" id="Layer_1" xmlns="http://www.w3.org/2000/svg" xmlns:xlink="http://www.w3.org/1999/xlink" x="0px" y="0px"
	 width="100%" viewBox="0 0 228 179" enable-background="new 0 0 228 179" xml:space="preserve">
<path fill="#FFFFFF" opacity="1.000000" stroke="none" 
	d="
M118.000000,180.000000 
	C78.690529,180.000000 39.881062,180.000000 1.035796,180.000000 
	C1.035796,120.393883 1.035796,60.787739 1.035796,1.090796 
	C76.892670,1.090796 152.785492,1.090796 228.839142,1.090796 
	C228.839142,60.666332 228.839142,120.333115 228.839142,180.000000 
	C192.121338,180.000000 155.310669,180.000000 118.000000,180.000000 
M155.846985,84.500999 
	C155.846848,79.840004 155.894775,75.178406 155.836853,70.518127 
	C155.704865,59.900299 148.870636,52.972847 138.320435,52.949318 
	C113.184494,52.893261 88.048271,52.896908 62.912300,52.947403 
	C51.636368,52.970055 45.074574,59.611240 45.015884,71.033455 
	C44.944901,84.849602 44.940681,98.666740 45.018871,112.482811 
	C45.081673,123.579796 51.613228,130.198456 62.715492,130.237274 
	C87.851257,130.325150 112.987808,130.333099 138.123489,130.233871 
	C149.268463,130.189880 155.747360,123.574593 155.832626,112.467712 
	C155.901611,103.479179 155.846786,94.489700 155.846985,84.500999 
z"/>
<path fill="#3671CC" opacity="1.000000" stroke="none" 
	d="
M155.846939,85.000824 
	C155.846786,94.489700 155.901611,103.479179 155.832626,112.467712 
	C155.747360,123.574593 149.268463,130.189880 138.123489,130.233871 
	C112.987808,130.333099 87.851257,130.325150 62.715492,130.237274 
	C51.613228,130.198456 45.081673,123.579796 45.018871,112.482811 
	C44.940681,98.666740 44.944901,84.849602 45.015884,71.033455 
	C45.074574,59.611240 51.636368,52.970055 62.912300,52.947403 
	C88.048271,52.896908 113.184494,52.893261 138.320435,52.949318 
	C148.870636,52.972847 155.704865,59.900299 155.836853,70.518127 
	C155.894775,75.178406 155.846848,79.840004 155.846939,85.000824 
M98.685539,104.169174 
	C105.930855,99.398361 113.176170,94.627548 121.004173,89.473053 
	C110.115517,82.314598 100.059563,75.703583 89.655792,68.863899 
	C89.655792,82.999962 89.655792,96.297134 89.655792,110.087013 
	C92.817947,108.031776 95.459709,106.314758 98.685539,104.169174 
z"/>
<path fill="#F8FAFD" opacity="1.000000" stroke="none" 
	d="
M98.393509,104.383461 
	C95.459709,106.314758 92.817947,108.031776 89.655792,110.087013 
	C89.655792,96.297134 89.655792,82.999962 89.655792,68.863899 
	C100.059563,75.703583 110.115517,82.314598 121.004173,89.473053 
	C113.176170,94.627548 105.930855,99.398361 98.393509,104.383461 
z"/>
</svg>